<svg xmlns="http://www.w3.org/2000/svg" xmlns:xlink="http://www.w3.org/1999/xlink" width="250" zoomAndPan="magnify" viewBox="0 0 187.5 187.499992" height="250" preserveAspectRatio="xMidYMid meet" version="1.0"><path fill="#000000" d="M 98.386719 105.160156 C 110.433594 104.972656 125.613281 103.132812 140.074219 97.238281 C 144.042969 95.621094 147.917969 93.796875 151.460938 91.359375 C 154.808594 89.0625 155.707031 86.796875 154.777344 82.894531 C 154.015625 79.691406 153.148438 76.515625 152.332031 73.324219 C 151.972656 71.914062 152.125 71.273438 153.925781 71.714844 C 163.242188 74.003906 172.308594 76.839844 180.042969 82.816406 C 181.378906 83.851562 182.550781 85.050781 183.554688 86.425781 C 186.996094 91.144531 186.902344 96.140625 183.273438 100.730469 C 180.707031 103.976562 177.460938 106.398438 173.953125 108.507812 C 166.191406 113.175781 157.746094 116.183594 149.082031 118.640625 C 146.160156 119.46875 146.144531 119.414062 146.59375 122.382812 C 149.140625 139.292969 131.933594 153.726562 116.246094 147.699219 C 107.089844 144.179688 102.429688 137.070312 101.335938 127.523438 C 101.171875 126.121094 100.855469 125.632812 99.378906 125.679688 C 95.589844 125.792969 91.792969 125.765625 88 125.703125 C 86.609375 125.683594 86.003906 125.921875 85.828125 127.570312 C 84.871094 136.535156 80.421875 143.296875 72.183594 147.125 C 61.1875 152.242188 48.0625 147.035156 42.605469 135.695312 C 40.359375 131.035156 39.816406 126.164062 40.734375 121.144531 C 40.988281 119.761719 40.597656 119.34375 39.367188 118.984375 C 31.132812 116.585938 23.046875 113.777344 15.496094 109.644531 C 11.417969 107.410156 7.535156 104.902344 4.453125 101.34375 C -0.046875 96.152344 0.0351562 90.378906 4.636719 85.265625 C 8.109375 81.410156 12.59375 79.089844 17.21875 77.027344 C 22.417969 74.707031 27.847656 73.042969 33.375 71.671875 C 34.9375 71.285156 35.433594 71.535156 34.960938 73.214844 C 34.054688 76.449219 33.328125 79.734375 32.417969 82.964844 C 31.421875 86.527344 32.761719 89.15625 35.609375 91.132812 C 42.085938 95.625 49.34375 98.4375 56.875 100.523438 C 68.410156 103.722656 79.417969 105.15625 98.386719 105.160156 Z M 98.386719 105.160156 " fill-opacity="1" fill-rule="nonzero"/><path fill="#000000" d="M 93.261719 86.832031 C 80.695312 86.738281 68.34375 85.199219 56.398438 81.125 C 52.539062 79.8125 48.832031 78.132812 45.433594 75.839844 C 44.304688 75.078125 43.4375 74.351562 43.871094 72.640625 C 46.46875 62.46875 48.917969 52.257812 51.84375 42.171875 C 53.609375 36.085938 58.789062 33 65.117188 33.824219 C 70.648438 34.542969 75.632812 36.699219 80.488281 39.257812 C 82.785156 40.464844 85.066406 41.703125 87.3125 43 C 91.472656 45.40625 95.554688 45.636719 99.847656 43.160156 C 104.273438 40.605469 108.695312 37.996094 113.488281 36.136719 C 117.429688 34.609375 121.433594 33.367188 125.765625 33.921875 C 130.738281 34.558594 133.957031 37.261719 135.402344 42.046875 C 137.773438 49.882812 139.644531 57.847656 141.695312 65.765625 C 142.308594 68.136719 142.777344 70.546875 143.480469 72.890625 C 143.832031 74.066406 143.492188 74.644531 142.566406 75.308594 C 137.472656 78.980469 131.710938 81.148438 125.730469 82.757812 C 115.109375 85.617188 104.269531 86.933594 93.261719 86.832031 Z M 93.261719 86.832031 " fill-opacity="1" fill-rule="nonzero"/></svg>